<?xml version="1.0" encoding="UTF-8"?>
<svg id="Layer_2" data-name="Layer 2" xmlns="http://www.w3.org/2000/svg" viewBox="0 0 5000 5000">
  <defs>
    <style>
      .cls-1, .cls-2 {
        fill: none;
      }

      .cls-2 {
        stroke: #000;
        stroke-miterlimit: 10;
        stroke-width: 2px;
      }
    </style>
  </defs>
  <g id="Layer_1-2" data-name="Layer 1">
    <g>
      <rect class="cls-1" y="0" width="5000" height="5000"/>
      <g>
        <g>
          <line class="cls-2" x1="788.52" y1="2251.86" x2="4196.92" y2="2747.71"/>
          <line class="cls-2" x1="4213.5" y1="2568.22" x2="771.94" y2="2431.36"/>
          <line class="cls-2" x1="774.21" y1="2611.6" x2="4211.22" y2="2387.97"/>
          <line class="cls-2" x1="4190.12" y1="2208.95" x2="795.32" y2="2790.62"/>
          <line class="cls-2" x1="835.02" y1="2966.45" x2="4150.42" y2="2033.12"/>
          <line class="cls-2" x1="4092.56" y1="1862.4" x2="892.88" y2="3137.18"/>
          <line class="cls-2" x1="968.27" y1="3300.91" x2="4017.17" y2="1698.66"/>
          <line class="cls-2" x1="3925.08" y1="1543.7" x2="1060.36" y2="3455.87"/>
          <line class="cls-2" x1="1168.14" y1="3600.36" x2="3817.29" y2="1399.22"/>
          <line class="cls-2" x1="3695" y1="1266.79" x2="1290.44" y2="3732.78"/>
          <line class="cls-2" x1="1425.91" y1="3851.7" x2="3559.53" y2="1147.87"/>
          <line class="cls-2" x1="3412.37" y1="1043.77" x2="1573.07" y2="3955.81"/>
          <line class="cls-2" x1="1730.3" y1="4043.96" x2="3255.14" y2="955.61"/>
          <line class="cls-2" x1="3089.55" y1="884.38" x2="1895.89" y2="4115.2"/>
          <line class="cls-2" x1="2068.01" y1="4168.73" x2="2917.42" y2="830.84"/>
          <line class="cls-2" x1="2740.64" y1="795.59" x2="2244.79" y2="4203.98"/>
          <line class="cls-2" x1="2424.29" y1="4220.56" x2="2561.15" y2="779.01"/>
          <line class="cls-2" x1="2380.9" y1="781.28" x2="2604.53" y2="4218.29"/>
          <line class="cls-2" x1="2783.55" y1="4197.19" x2="2201.88" y2="802.39"/>
          <line class="cls-2" x1="2026.05" y1="842.08" x2="2959.39" y2="4157.49"/>
          <line class="cls-2" x1="3130.11" y1="4099.63" x2="1855.33" y2="899.95"/>
          <line class="cls-2" x1="1691.59" y1="975.33" x2="3293.84" y2="4024.24"/>
          <line class="cls-2" x1="3448.8" y1="3932.15" x2="1536.63" y2="1067.43"/>
          <line class="cls-2" x1="1392.15" y1="1175.21" x2="3593.29" y2="3824.36"/>
          <line class="cls-2" x1="3725.72" y1="3702.07" x2="1259.72" y2="1297.51"/>
          <line class="cls-2" x1="1140.8" y1="1432.98" x2="3844.63" y2="3566.6"/>
          <line class="cls-2" x1="3948.74" y1="3419.44" x2="1036.7" y2="1580.14"/>
          <line class="cls-2" x1="948.54" y1="1737.37" x2="4036.89" y2="3262.2"/>
          <line class="cls-2" x1="4108.13" y1="3096.62" x2="877.31" y2="1902.96"/>
          <line class="cls-2" x1="823.77" y1="2075.08" x2="4161.66" y2="2924.49"/>
          <line class="cls-2" x1="4196.92" y1="2747.71" x2="788.52" y2="2251.86"/>
          <line class="cls-2" x1="771.94" y1="2431.36" x2="4213.5" y2="2568.22"/>
          <line class="cls-2" x1="4211.22" y1="2387.97" x2="774.21" y2="2611.6"/>
          <line class="cls-2" x1="795.32" y1="2790.62" x2="4190.12" y2="2208.95"/>
          <line class="cls-2" x1="4150.42" y1="2033.12" x2="835.02" y2="2966.45"/>
        </g>
        <g>
          <line class="cls-2" x1="2155.94" y1="4188.67" x2="2829.5" y2="810.9"/>
          <line class="cls-2" x1="2651.11" y1="784.95" x2="2334.32" y2="4214.62"/>
          <line class="cls-2" x1="2514.44" y1="4221.79" x2="2471" y2="777.79"/>
          <line class="cls-2" x1="2291.12" y1="789.49" x2="2694.32" y2="4210.08"/>
          <line class="cls-2" x1="2871.99" y1="4179.64" x2="2113.45" y2="819.93"/>
          <line class="cls-2" x1="1939.93" y1="868.78" x2="3045.5" y2="4130.79"/>
          <line class="cls-2" x1="3212.96" y1="4064.08" x2="1772.47" y2="935.5"/>
          <line class="cls-2" x1="1612.91" y1="1019.35" x2="3372.53" y2="3980.22"/>
          <line class="cls-2" x1="3522.46" y1="3880.15" x2="1462.98" y2="1119.43"/>
          <line class="cls-2" x1="1324.33" y1="1234.63" x2="3661.1" y2="3764.95"/>
          <line class="cls-2" x1="3786.95" y1="3635.89" x2="1198.49" y2="1363.69"/>
          <line class="cls-2" x1="1086.82" y1="1505.19" x2="3898.61" y2="3494.38"/>
          <line class="cls-2" x1="3994.87" y1="3341.98" x2="990.56" y2="1657.6"/>
          <line class="cls-2" x1="910.76" y1="1819.23" x2="4074.68" y2="3180.34"/>
          <line class="cls-2" x1="4137.15" y1="3011.26" x2="848.29" y2="1988.32"/>
          <line class="cls-2" x1="803.83" y1="2163.01" x2="4181.6" y2="2836.56"/>
          <line class="cls-2" x1="4207.56" y1="2658.18" x2="777.88" y2="2341.39"/>
          <line class="cls-2" x1="770.72" y1="2521.51" x2="4214.72" y2="2478.07"/>
          <line class="cls-2" x1="4203.01" y1="2298.19" x2="782.42" y2="2701.39"/>
          <line class="cls-2" x1="812.86" y1="2879.06" x2="4172.57" y2="2120.52"/>
          <line class="cls-2" x1="4123.73" y1="1947" x2="861.71" y2="3052.57"/>
          <line class="cls-2" x1="928.43" y1="3220.03" x2="4057.01" y2="1779.54"/>
          <line class="cls-2" x1="3973.15" y1="1619.98" x2="1012.28" y2="3379.6"/>
          <line class="cls-2" x1="1112.36" y1="3529.53" x2="3873.08" y2="1470.05"/>
          <line class="cls-2" x1="3757.88" y1="1331.4" x2="1227.56" y2="3668.17"/>
          <line class="cls-2" x1="1356.62" y1="3794.02" x2="3628.82" y2="1205.56"/>
          <line class="cls-2" x1="3487.31" y1="1093.89" x2="1498.13" y2="3905.68"/>
          <line class="cls-2" x1="1650.53" y1="4001.94" x2="3334.91" y2="997.63"/>
          <line class="cls-2" x1="3173.28" y1="917.83" x2="1812.16" y2="4081.75"/>
          <line class="cls-2" x1="1981.25" y1="4144.22" x2="3004.19" y2="855.36"/>
          <line class="cls-2" x1="2829.5" y1="810.9" x2="2155.94" y2="4188.67"/>
          <line class="cls-2" x1="2334.32" y1="4214.62" x2="2651.11" y2="784.95"/>
          <line class="cls-2" x1="2471" y1="777.79" x2="2514.44" y2="4221.79"/>
          <line class="cls-2" x1="2694.32" y1="4210.08" x2="2291.12" y2="789.49"/>
          <line class="cls-2" x1="2113.45" y1="819.93" x2="2871.99" y2="4179.64"/>
        </g>
        <g>
          <line class="cls-2" x1="4161.66" y1="2924.49" x2="823.77" y2="2075.08"/>
          <line class="cls-2" x1="788.52" y1="2251.86" x2="4196.92" y2="2747.71"/>
          <line class="cls-2" x1="4213.5" y1="2568.22" x2="771.94" y2="2431.36"/>
          <line class="cls-2" x1="774.21" y1="2611.6" x2="4211.22" y2="2387.97"/>
          <line class="cls-2" x1="4190.12" y1="2208.95" x2="795.32" y2="2790.62"/>
          <line class="cls-2" x1="835.02" y1="2966.45" x2="4150.42" y2="2033.12"/>
          <line class="cls-2" x1="4092.56" y1="1862.4" x2="892.88" y2="3137.18"/>
          <line class="cls-2" x1="968.27" y1="3300.91" x2="4017.17" y2="1698.66"/>
          <line class="cls-2" x1="3925.08" y1="1543.7" x2="1060.36" y2="3455.87"/>
          <line class="cls-2" x1="1168.14" y1="3600.36" x2="3817.29" y2="1399.22"/>
          <line class="cls-2" x1="3695" y1="1266.79" x2="1290.44" y2="3732.78"/>
          <line class="cls-2" x1="1425.91" y1="3851.7" x2="3559.53" y2="1147.87"/>
          <line class="cls-2" x1="3412.37" y1="1043.77" x2="1573.07" y2="3955.81"/>
          <line class="cls-2" x1="1730.3" y1="4043.96" x2="3255.14" y2="955.61"/>
          <line class="cls-2" x1="3089.55" y1="884.38" x2="1895.89" y2="4115.2"/>
          <line class="cls-2" x1="2068.01" y1="4168.73" x2="2917.42" y2="830.84"/>
          <line class="cls-2" x1="2740.64" y1="795.59" x2="2244.79" y2="4203.98"/>
          <line class="cls-2" x1="2424.29" y1="4220.56" x2="2561.15" y2="779.01"/>
          <line class="cls-2" x1="2380.9" y1="781.28" x2="2604.53" y2="4218.29"/>
          <line class="cls-2" x1="2783.55" y1="4197.19" x2="2201.88" y2="802.39"/>
          <line class="cls-2" x1="2026.05" y1="842.08" x2="2959.39" y2="4157.49"/>
          <line class="cls-2" x1="3130.11" y1="4099.63" x2="1855.33" y2="899.95"/>
          <line class="cls-2" x1="1691.59" y1="975.33" x2="3293.84" y2="4024.24"/>
          <line class="cls-2" x1="3448.8" y1="3932.15" x2="1536.63" y2="1067.43"/>
          <line class="cls-2" x1="1392.15" y1="1175.21" x2="3593.29" y2="3824.36"/>
          <line class="cls-2" x1="3725.72" y1="3702.07" x2="1259.72" y2="1297.51"/>
          <line class="cls-2" x1="1140.8" y1="1432.98" x2="3844.63" y2="3566.6"/>
          <line class="cls-2" x1="3948.74" y1="3419.44" x2="1036.7" y2="1580.14"/>
          <line class="cls-2" x1="948.54" y1="1737.37" x2="4036.89" y2="3262.2"/>
          <line class="cls-2" x1="4108.13" y1="3096.62" x2="877.31" y2="1902.96"/>
          <line class="cls-2" x1="823.77" y1="2075.08" x2="4161.66" y2="2924.49"/>
          <line class="cls-2" x1="4196.92" y1="2747.71" x2="788.52" y2="2251.86"/>
          <line class="cls-2" x1="771.94" y1="2431.36" x2="4213.5" y2="2568.22"/>
          <line class="cls-2" x1="4211.22" y1="2387.97" x2="774.21" y2="2611.6"/>
          <line class="cls-2" x1="795.32" y1="2790.62" x2="4190.12" y2="2208.95"/>
        </g>
        <g>
          <line class="cls-2" x1="3004.19" y1="855.36" x2="1981.25" y2="4144.22"/>
          <line class="cls-2" x1="2155.94" y1="4188.67" x2="2829.5" y2="810.9"/>
          <line class="cls-2" x1="2651.11" y1="784.95" x2="2334.32" y2="4214.62"/>
          <line class="cls-2" x1="2514.44" y1="4221.79" x2="2471" y2="777.79"/>
          <line class="cls-2" x1="2291.12" y1="789.49" x2="2694.32" y2="4210.08"/>
          <line class="cls-2" x1="2871.99" y1="4179.64" x2="2113.45" y2="819.93"/>
          <line class="cls-2" x1="1939.93" y1="868.78" x2="3045.5" y2="4130.79"/>
          <line class="cls-2" x1="3212.96" y1="4064.08" x2="1772.47" y2="935.5"/>
          <line class="cls-2" x1="1612.91" y1="1019.35" x2="3372.53" y2="3980.22"/>
          <line class="cls-2" x1="3522.46" y1="3880.15" x2="1462.98" y2="1119.43"/>
          <line class="cls-2" x1="1324.33" y1="1234.63" x2="3661.1" y2="3764.95"/>
          <line class="cls-2" x1="3786.95" y1="3635.89" x2="1198.49" y2="1363.69"/>
          <line class="cls-2" x1="1086.82" y1="1505.19" x2="3898.61" y2="3494.38"/>
          <line class="cls-2" x1="3994.87" y1="3341.98" x2="990.56" y2="1657.6"/>
          <line class="cls-2" x1="910.76" y1="1819.23" x2="4074.68" y2="3180.34"/>
          <line class="cls-2" x1="4137.15" y1="3011.26" x2="848.29" y2="1988.32"/>
          <line class="cls-2" x1="803.83" y1="2163.01" x2="4181.6" y2="2836.56"/>
          <line class="cls-2" x1="4207.56" y1="2658.18" x2="777.88" y2="2341.39"/>
          <line class="cls-2" x1="770.72" y1="2521.51" x2="4214.72" y2="2478.07"/>
          <line class="cls-2" x1="4203.01" y1="2298.19" x2="782.42" y2="2701.39"/>
          <line class="cls-2" x1="812.86" y1="2879.06" x2="4172.57" y2="2120.52"/>
          <line class="cls-2" x1="4123.73" y1="1947" x2="861.71" y2="3052.57"/>
          <line class="cls-2" x1="928.43" y1="3220.03" x2="4057.01" y2="1779.54"/>
          <line class="cls-2" x1="3973.15" y1="1619.98" x2="1012.28" y2="3379.6"/>
          <line class="cls-2" x1="1112.36" y1="3529.53" x2="3873.08" y2="1470.05"/>
          <line class="cls-2" x1="3757.88" y1="1331.4" x2="1227.56" y2="3668.17"/>
          <line class="cls-2" x1="1356.62" y1="3794.02" x2="3628.82" y2="1205.56"/>
          <line class="cls-2" x1="3487.31" y1="1093.89" x2="1498.13" y2="3905.68"/>
          <line class="cls-2" x1="1650.53" y1="4001.94" x2="3334.91" y2="997.63"/>
          <line class="cls-2" x1="3173.28" y1="917.83" x2="1812.16" y2="4081.75"/>
          <line class="cls-2" x1="1981.25" y1="4144.22" x2="3004.19" y2="855.36"/>
          <line class="cls-2" x1="2829.5" y1="810.9" x2="2155.94" y2="4188.67"/>
          <line class="cls-2" x1="2334.32" y1="4214.62" x2="2651.11" y2="784.95"/>
          <line class="cls-2" x1="2471" y1="777.79" x2="2514.44" y2="4221.79"/>
          <line class="cls-2" x1="2694.32" y1="4210.08" x2="2291.12" y2="789.49"/>
        </g>
        <g>
          <line class="cls-2" x1="877.31" y1="1902.96" x2="4108.13" y2="3096.62"/>
          <line class="cls-2" x1="4161.66" y1="2924.49" x2="823.77" y2="2075.08"/>
          <line class="cls-2" x1="788.52" y1="2251.86" x2="4196.92" y2="2747.71"/>
          <line class="cls-2" x1="4213.5" y1="2568.22" x2="771.94" y2="2431.36"/>
          <line class="cls-2" x1="774.21" y1="2611.6" x2="4211.22" y2="2387.97"/>
          <line class="cls-2" x1="4190.12" y1="2208.95" x2="795.32" y2="2790.62"/>
          <line class="cls-2" x1="835.02" y1="2966.45" x2="4150.42" y2="2033.12"/>
          <line class="cls-2" x1="4092.56" y1="1862.4" x2="892.88" y2="3137.18"/>
          <line class="cls-2" x1="968.27" y1="3300.91" x2="4017.17" y2="1698.66"/>
          <line class="cls-2" x1="3925.08" y1="1543.7" x2="1060.36" y2="3455.87"/>
          <line class="cls-2" x1="1168.14" y1="3600.36" x2="3817.29" y2="1399.22"/>
          <line class="cls-2" x1="3695" y1="1266.79" x2="1290.44" y2="3732.78"/>
          <line class="cls-2" x1="1425.91" y1="3851.7" x2="3559.53" y2="1147.87"/>
          <line class="cls-2" x1="3412.37" y1="1043.77" x2="1573.07" y2="3955.81"/>
          <line class="cls-2" x1="1730.3" y1="4043.96" x2="3255.14" y2="955.61"/>
          <line class="cls-2" x1="3089.55" y1="884.38" x2="1895.89" y2="4115.2"/>
          <line class="cls-2" x1="2068.01" y1="4168.73" x2="2917.42" y2="830.84"/>
          <line class="cls-2" x1="2740.64" y1="795.59" x2="2244.79" y2="4203.98"/>
          <line class="cls-2" x1="2424.29" y1="4220.56" x2="2561.15" y2="779.01"/>
          <line class="cls-2" x1="2380.9" y1="781.28" x2="2604.53" y2="4218.29"/>
          <line class="cls-2" x1="2783.55" y1="4197.19" x2="2201.88" y2="802.39"/>
          <line class="cls-2" x1="2026.05" y1="842.08" x2="2959.39" y2="4157.49"/>
          <line class="cls-2" x1="3130.11" y1="4099.63" x2="1855.33" y2="899.95"/>
          <line class="cls-2" x1="1691.59" y1="975.33" x2="3293.84" y2="4024.24"/>
          <line class="cls-2" x1="3448.8" y1="3932.15" x2="1536.63" y2="1067.43"/>
          <line class="cls-2" x1="1392.15" y1="1175.21" x2="3593.29" y2="3824.36"/>
          <line class="cls-2" x1="3725.72" y1="3702.07" x2="1259.72" y2="1297.51"/>
          <line class="cls-2" x1="1140.8" y1="1432.98" x2="3844.63" y2="3566.6"/>
          <line class="cls-2" x1="3948.74" y1="3419.44" x2="1036.7" y2="1580.14"/>
          <line class="cls-2" x1="948.54" y1="1737.37" x2="4036.89" y2="3262.2"/>
          <line class="cls-2" x1="4108.13" y1="3096.62" x2="877.31" y2="1902.96"/>
          <line class="cls-2" x1="823.77" y1="2075.08" x2="4161.66" y2="2924.49"/>
          <line class="cls-2" x1="4196.92" y1="2747.71" x2="788.52" y2="2251.86"/>
          <line class="cls-2" x1="771.94" y1="2431.36" x2="4213.5" y2="2568.22"/>
          <line class="cls-2" x1="4211.22" y1="2387.97" x2="774.21" y2="2611.6"/>
        </g>
        <g>
          <line class="cls-2" x1="1812.16" y1="4081.75" x2="3173.28" y2="917.83"/>
          <line class="cls-2" x1="3004.19" y1="855.36" x2="1981.25" y2="4144.22"/>
          <line class="cls-2" x1="2155.94" y1="4188.67" x2="2829.5" y2="810.9"/>
          <line class="cls-2" x1="2651.11" y1="784.95" x2="2334.32" y2="4214.62"/>
          <line class="cls-2" x1="2514.44" y1="4221.79" x2="2471" y2="777.79"/>
          <line class="cls-2" x1="2291.12" y1="789.49" x2="2694.32" y2="4210.08"/>
          <line class="cls-2" x1="2871.99" y1="4179.64" x2="2113.45" y2="819.93"/>
          <line class="cls-2" x1="1939.93" y1="868.78" x2="3045.5" y2="4130.79"/>
          <line class="cls-2" x1="3212.96" y1="4064.08" x2="1772.47" y2="935.5"/>
          <line class="cls-2" x1="1612.91" y1="1019.35" x2="3372.53" y2="3980.22"/>
          <line class="cls-2" x1="3522.46" y1="3880.15" x2="1462.98" y2="1119.43"/>
          <line class="cls-2" x1="1324.33" y1="1234.63" x2="3661.1" y2="3764.95"/>
          <line class="cls-2" x1="3786.95" y1="3635.89" x2="1198.49" y2="1363.69"/>
          <line class="cls-2" x1="1086.82" y1="1505.19" x2="3898.61" y2="3494.38"/>
          <line class="cls-2" x1="3994.87" y1="3341.98" x2="990.56" y2="1657.6"/>
          <line class="cls-2" x1="910.76" y1="1819.23" x2="4074.68" y2="3180.34"/>
          <line class="cls-2" x1="4137.15" y1="3011.26" x2="848.29" y2="1988.32"/>
          <line class="cls-2" x1="803.83" y1="2163.01" x2="4181.6" y2="2836.56"/>
          <line class="cls-2" x1="4207.56" y1="2658.18" x2="777.88" y2="2341.39"/>
          <line class="cls-2" x1="770.72" y1="2521.51" x2="4214.72" y2="2478.07"/>
          <line class="cls-2" x1="4203.01" y1="2298.19" x2="782.42" y2="2701.39"/>
          <line class="cls-2" x1="812.86" y1="2879.06" x2="4172.57" y2="2120.52"/>
          <line class="cls-2" x1="4123.73" y1="1947" x2="861.71" y2="3052.57"/>
          <line class="cls-2" x1="928.43" y1="3220.03" x2="4057.01" y2="1779.54"/>
          <line class="cls-2" x1="3973.15" y1="1619.98" x2="1012.28" y2="3379.6"/>
          <line class="cls-2" x1="1112.36" y1="3529.53" x2="3873.08" y2="1470.05"/>
          <line class="cls-2" x1="3757.88" y1="1331.4" x2="1227.56" y2="3668.17"/>
          <line class="cls-2" x1="1356.62" y1="3794.02" x2="3628.82" y2="1205.56"/>
          <line class="cls-2" x1="3487.31" y1="1093.89" x2="1498.13" y2="3905.68"/>
          <line class="cls-2" x1="1650.53" y1="4001.94" x2="3334.91" y2="997.63"/>
          <line class="cls-2" x1="3173.28" y1="917.83" x2="1812.16" y2="4081.75"/>
          <line class="cls-2" x1="1981.25" y1="4144.22" x2="3004.19" y2="855.36"/>
          <line class="cls-2" x1="2829.5" y1="810.9" x2="2155.94" y2="4188.67"/>
          <line class="cls-2" x1="2334.32" y1="4214.62" x2="2651.11" y2="784.95"/>
          <line class="cls-2" x1="2471" y1="777.79" x2="2514.44" y2="4221.79"/>
        </g>
      </g>
    </g>
  </g>
</svg>