<svg width="32" height="32" viewBox="0 0 32 32" fill="none" xmlns="http://www.w3.org/2000/svg">
<circle cx="16" cy="16" r="16" fill="#EBEBEC"/>
<path d="M8.31189 24.943V13.5277C8.31189 13.3595 8.37871 13.1982 8.49764 13.0793C8.61657 12.9604 8.77788 12.8936 8.94607 12.8936H11.1242M22.2639 15.4303V17.3328" stroke="#70757B" stroke-width="1.5" stroke-linecap="round" stroke-linejoin="round"/>
<path d="M8.31189 24.9427L10.6892 18.9995C10.7362 18.8819 10.8175 18.781 10.9224 18.7099C11.0274 18.6389 11.1512 18.6009 11.278 18.6009H15.0959C15.2211 18.6009 15.3435 18.5638 15.4476 18.4944L17.0307 17.439C17.1348 17.3696 17.2572 17.3325 17.3824 17.3325H23.9207C24.0212 17.3325 24.1202 17.3564 24.2097 17.4022C24.2991 17.448 24.3764 17.5144 24.4352 17.5959C24.4939 17.6774 24.5325 17.7717 24.5476 17.8711C24.5628 17.9704 24.5541 18.0719 24.5223 18.1672L22.2639 24.9427H8.31189Z" stroke="#70757B" stroke-width="1.5" stroke-linecap="round" stroke-linejoin="round"/>
<path d="M11.2478 7.7261V18.5994H15.2691L17.1393 17.3011H22.2651V10.402L18.9202 7.05713H11.9168C11.7394 7.05713 11.5692 7.12761 11.4437 7.25307C11.3183 7.37852 11.2478 7.54868 11.2478 7.7261Z" fill="#EBEBEC" stroke="#70757B" stroke-width="1.5" stroke-linecap="round" stroke-linejoin="round"/>
<path opacity="0.3" d="M11.2478 7.7261V18.5994H15.2691L17.1393 17.3011H22.2651V10.402L18.9202 7.05713H11.9168C11.7394 7.05713 11.5692 7.12761 11.4437 7.25307C11.3183 7.37852 11.2478 7.54868 11.2478 7.7261Z" fill="#70757B"/>
<path d="M14.3287 13.1635H18.3075" stroke="#70757B" stroke-width="1.5" stroke-linecap="round" stroke-linejoin="round"/>
<path d="M14.3286 10.4963L16.3865 10.4961" stroke="#70757B" stroke-width="1.5" stroke-linecap="round" stroke-linejoin="round"/>
</svg>
