<svg width="24" height="24" viewBox="0 0 24 24" fill="none" xmlns="http://www.w3.org/2000/svg">
<path d="M18.6276 11.277V4.10949C18.6276 3.09333 17.8849 2.29492 16.9396 2.29492H5.79884C4.85356 2.29492 4.11084 3.09333 4.11084 4.10949V18.4446C4.11084 19.4607 4.85356 20.2592 5.79884 20.2592H11.0337" stroke="#1572ED" stroke-width="1.5" stroke-linecap="round" stroke-linejoin="round"/>
<path d="M7.59595 6.18311H15.0744" stroke="#1572ED" stroke-width="1.5" stroke-linecap="round" stroke-linejoin="round"/>
<path d="M7.59595 9.18311H12.0959" stroke="#1572ED" stroke-width="1.5" stroke-linecap="round" stroke-linejoin="round"/>
<circle opacity="0.2" cx="16.1744" cy="16.8753" r="5.9715" fill="#1572ED"/>
<circle cx="16.1744" cy="16.8753" r="5.9715" stroke="#1572ED" stroke-width="1.5" stroke-linecap="round" stroke-linejoin="round"/>
<path d="M14.7342 17.4431L13.3809 16.0951L14.7342 14.7365" stroke="#1572ED" stroke-width="1.5" stroke-linecap="round" stroke-linejoin="round"/>
<path d="M13.8065 16.0305L16.6794 16.0305C17.708 16.0305 18.5418 16.8643 18.5418 17.8929C18.5418 18.9215 17.708 19.7554 16.6794 19.7554L15.2726 19.7554" stroke="#1572ED" stroke-width="1.5" stroke-linecap="round" stroke-linejoin="round"/>
</svg>
