<svg width="24" height="24" viewBox="0 0 24 24" fill="none" xmlns="http://www.w3.org/2000/svg">
<path opacity="0.2" d="M13.9913 11.6944C14.3231 6.7973 12.7754 4.3806 11.8679 2.54761C15.1782 3.37518 16.9495 8.9903 17.4214 11.6944L19.0547 13.3822L17.0402 20.3512L15.3524 18.8812H12.1402C12.5576 17.7016 13.6913 16.1235 13.9913 11.6944Z" fill="#1572ED"/>
<path d="M13.5799 22.1702H10.4202" stroke="#1572ED" stroke-width="1.5" stroke-linecap="round" stroke-linejoin="round"/>
<path d="M11.5032 2.00303C9.62784 3.50532 3.35529 9.50841 8.84005 19.0103H15.1596C20.5303 9.51514 14.3495 3.51381 12.4938 2.00622C12.354 1.89251 12.1793 1.83018 11.9991 1.82959C11.8188 1.82901 11.6438 1.89022 11.5032 2.00303V2.00303Z" stroke="#1572ED" stroke-width="1.5" stroke-linecap="round" stroke-linejoin="round"/>
<path d="M6.65517 11.0479L3.55956 14.7626C3.48223 14.8554 3.42722 14.9647 3.39874 15.082C3.37026 15.1994 3.36907 15.3218 3.39528 15.4397L4.61603 20.9331C4.64513 21.064 4.7071 21.1854 4.79609 21.2858C4.88509 21.3861 4.99818 21.4622 5.1247 21.5068C5.25123 21.5513 5.38702 21.563 5.51927 21.5405C5.65153 21.5181 5.77589 21.4623 5.88064 21.3785L8.8407 19.0105" stroke="#1572ED" stroke-width="1.5" stroke-linecap="round" stroke-linejoin="round"/>
<path d="M17.2855 10.9763L20.4406 14.7624C20.5179 14.8552 20.5729 14.9645 20.6014 15.0818C20.6299 15.1992 20.631 15.3216 20.6048 15.4395L19.3841 20.9329C19.355 21.0638 19.293 21.1852 19.204 21.2856C19.115 21.3859 19.0019 21.462 18.8754 21.5066C18.7489 21.5511 18.6131 21.5627 18.4808 21.5403C18.3486 21.5179 18.2242 21.4621 18.1195 21.3783L15.1594 19.0103" stroke="#1572ED" stroke-width="1.5" stroke-linecap="round" stroke-linejoin="round"/>
<path d="M11.9999 10.7158C12.6543 10.7158 13.1848 10.1853 13.1848 9.53087C13.1848 8.87645 12.6543 8.34595 11.9999 8.34595C11.3454 8.34595 10.8149 8.87645 10.8149 9.53087C10.8149 10.1853 11.3454 10.7158 11.9999 10.7158Z" fill="#1572ED"/>
</svg>
